<?xml version="1.0" encoding="UTF-8" standalone="no"?>
<!-- Created with Inkscape (http://www.inkscape.org/) -->

<svg
   xmlns:dc="http://purl.org/dc/elements/1.1/"
   xmlns:cc="http://creativecommons.org/ns#"
   xmlns:rdf="http://www.w3.org/1999/02/22-rdf-syntax-ns#"
   xmlns:svg="http://www.w3.org/2000/svg"
   xmlns="http://www.w3.org/2000/svg"
   xmlns:sodipodi="http://sodipodi.sourceforge.net/DTD/sodipodi-0.dtd"
   xmlns:inkscape="http://www.inkscape.org/namespaces/inkscape"
   width="3000"
   height="1221.8403"
   viewBox="0 0 3000 1221.8404"
   id="svg40450"
   version="1.1"
   inkscape:version="0.91 r13725"
   sodipodi:docname="lider.svg">
  <title
     id="title41504">SuperBodega Acuenta</title>
  <defs
     id="defs40452">
    <clipPath
       id="clipPath6238"
       clipPathUnits="userSpaceOnUse">
      <path
         inkscape:connector-curvature="0"
         id="path6240"
         d="m 0,0 1303.937,0 0,651.969 L 0,651.969 0,0 Z" />
    </clipPath>
    <clipPath
       id="clipPath6226"
       clipPathUnits="userSpaceOnUse">
      <path
         inkscape:connector-curvature="0"
         id="path6228"
         d="m 961.469,79.545 34.094,0 0,13.613 -34.094,0 0,-13.613 z" />
    </clipPath>
  </defs>
  <sodipodi:namedview
     id="base"
     pagecolor="#ffffff"
     bordercolor="#666666"
     borderopacity="1.0"
     inkscape:pageopacity="0.0"
     inkscape:pageshadow="2"
     inkscape:zoom="0.31274052"
     inkscape:cx="1519.1607"
     inkscape:cy="609.06619"
     inkscape:document-units="px"
     inkscape:current-layer="layer1"
     showgrid="false"
     inkscape:showpageshadow="false"
     fit-margin-top="20"
     fit-margin-bottom="20"
     fit-margin-left="20"
     fit-margin-right="20"
     units="px"
     inkscape:window-width="1366"
     inkscape:window-height="715"
     inkscape:window-x="-8"
     inkscape:window-y="-8"
     inkscape:window-maximized="1" />
  <metadata
     id="metadata40455">
    <rdf:RDF>
      <cc:Work
         rdf:about="">
        <dc:format>image/svg+xml</dc:format>
        <dc:type
           rdf:resource="http://purl.org/dc/dcmitype/StillImage" />
        <dc:title>SuperBodega Acuenta</dc:title>
      </cc:Work>
    </rdf:RDF>
  </metadata>
  <g
     inkscape:label="Capa 1"
     inkscape:groupmode="layer"
     id="layer1"
     transform="translate(1237.4886,519.3117)">
    <g
       id="g41475">
      <g
         style="fill:#c22026;fill-opacity:1"
         transform="matrix(86.823384,0,0,-86.823384,-84695.638,7588.9386)"
         id="g6222">
        <g
           style="fill:#c22026;fill-opacity:1"
           clip-path="url(#clipPath6226)"
           id="g6224">
          <g
             style="fill:#c22026;fill-opacity:1"
             transform="translate(993.2908,93.1575)"
             id="g6230">
            <path
               id="path6232"
               transform="matrix(0.01151764,0,0,-0.01151764,-32.532105,0.62011837)"
               d="m 259.08984,53.839844 c -27.43618,0 -53.56977,5.558462 -77.35937,15.716797 -41.15428,16.930557 -73.36552,46.710689 -94.203126,83.871089 -16.409619,28.82536 -25.699219,62.16591 -25.699219,97.58985 l 0,2.51758 0,784.88284 c 0,108.9633 88.211555,197.2617 197.261715,197.2617 l 2.51758,-0.086 2559.90038,0 3.0391,0.086 c 109.0501,0 197.3496,-88.2984 197.3496,-197.2617 l 0,-787.40042 c 0,-108.78969 -88.2995,-197.177736 -197.3496,-197.177736 l -2565.45706,0 z"
               style="fill:#c22026;fill-opacity:1;fill-rule:nonzero;stroke:none"
               inkscape:connector-curvature="0" />
          </g>
        </g>
      </g>
      <g
         style="fill:#ffffff;fill-opacity:1"
         transform="matrix(86.823384,0,0,-86.823384,-84695.638,7588.9386)"
         id="g6234">
        <g
           style="fill:#ffffff;fill-opacity:1"
           clip-path="url(#clipPath6238)"
           id="g6236">
          <g
             style="fill:#ffffff;fill-opacity:1"
             transform="translate(975.6259,88.6217)"
             id="g6242" />
          <g
             style="fill:#ffffff;fill-opacity:1"
             transform="translate(980.7877,85.4708)"
             id="g6246" />
          <g
             style="fill:#ffffff;fill-opacity:1"
             transform="translate(982.8439,84.0755)"
             id="g6250" />
          <g
             style="fill:#ffffff;fill-opacity:1"
             transform="translate(987.3429,89.4715)"
             id="g6254" />
          <g
             style="fill:#ffffff;fill-opacity:1"
             transform="translate(993.3892,84.0769)"
             id="g6258" />
          <g
             style="fill:#ffffff;fill-opacity:1"
             transform="translate(967.2986,84.0769)"
             id="g6262" />
          <g
             style="fill:#ffffff;fill-opacity:1"
             transform="translate(973.8479,83.6232)"
             id="g6266" />
          <g
             style="fill:#ffffff;fill-opacity:1"
             transform="translate(976.791,80.4184)"
             id="g6270" />
          <g
             style="fill:#ffffff;fill-opacity:1"
             transform="translate(983.95,90.2897)"
             id="g6274" />
          <g
             style="fill:#ffffff;fill-opacity:1"
             transform="translate(986.4749,90.2425)"
             id="g6278" />
          <g
             style="fill:#ffffff;fill-opacity:1"
             transform="translate(989.0102,92.2134)"
             id="g6282" />
          <g
             style="fill:#ffffff;fill-opacity:1"
             transform="translate(990.6105,90.5848)"
             id="g6286" />
          <g
             style="fill:#ffffff;fill-opacity:1"
             transform="translate(990.9187,89.7914)"
             id="g6290" />
          <g
             style="fill:#ffffff;fill-opacity:1"
             transform="translate(994.1857,90.2726)"
             id="g6294" />
          <g
             style="fill:#ffffff;fill-opacity:1"
             transform="translate(975.9571,90.3788)"
             id="g6298" />
          <g
             style="fill:#ffffff;fill-opacity:1"
             transform="translate(978.9271,91.6089)"
             id="g6302" />
          <g
             style="fill:#ffffff;fill-opacity:1"
             transform="translate(979.6863,89.7363)"
             id="g6306" />
          <g
             style="fill:#ffffff;fill-opacity:1"
             transform="translate(982.486,90.5887)"
             id="g6310" />
          <g
             style="fill:#ffffff;fill-opacity:1"
             transform="translate(983.2142,90.2778)"
             id="g6314" />
          <g
             style="fill:#ffffff;fill-opacity:1"
             transform="translate(993.5767,83.5156)"
             id="g6318">
            <path
               id="path6320"
               transform="matrix(0.01151764,0,0,-0.01151764,-32.818005,10.262018)"
               d="m 2452.8906,135.81055 -12.5879,53.65625 c -6.1644,-2.17059 -14.935,-3.29883 -21.8808,-3.29883 -52.1809,0 -88.6465,37.15981 -88.6465,77.9668 0,26.04701 17.8867,42.80468 43.1523,42.80468 18.4066,0 35.8572,-7.38067 48.7071,-23.0957 l 0.6074,0 -2.9512,20.49023 31.1699,0 c 0.521,-12.58938 3.2114,-27.78172 6.4239,-41.32617 l 29.6933,-127.19726 -33.6875,0 z m -1036.2461,5.69531 c -39.6783,0 -72.3222,19.01541 -72.3222,49.66406 0,19.10114 17.1897,31.77703 39.9375,41.76172 19.0143,8.33504 27.4375,15.36742 27.4375,25.87305 0,15.45456 -17.1927,23.61523 -36.2071,23.61523 -17.1042,0 -32.9054,-4.16632 -44.2793,-10.07031 l -11.6347,22.74805 c 8.6823,5.46987 28.3052,10.93874 52.1816,11.19922 43.759,0 75.7969,-19.70934 75.7969,-51.83399 0,-19.44844 -14.3267,-32.21081 -38.2031,-42.36914 -18.3198,-8.42187 -29.4317,-15.02119 -29.4317,-25.96094 0,-10.67927 12.3281,-20.83593 33.7735,-20.83593 16.0623,-0.26048 29.1727,4.25308 35.5976,7.20507 l 11.1133,-22.92187 c -7.9878,-3.73341 -21.8803,-8.07422 -43.7598,-8.07422 z m 680.2539,1.6582 c -17.7119,0 -34.0352,1.38997 -47.2324,3.56055 l -36.1191,156.10742 c 9.3769,1.476 25.7003,2.60547 45.4961,2.60547 29.7804,0 53.3966,-3.73245 69.459,-13.10938 14.239,-7.90092 25.2656,-20.57725 25.2656,-37.50781 0,-18.40655 -13.11,-30.73625 -31.4297,-35.33789 l 0,-0.69531 c 21.5322,-4.68846 40.8066,-18.40617 40.8066,-38.89649 0,-11.98162 -7.5549,-21.53137 -19.0156,-27.26171 -11.8948,-6.94587 -26.7401,-9.46485 -47.2305,-9.46485 z m 0,21.53321 c 18.7539,0 31.2559,5.72969 31.2559,19.01367 0,16.40962 -18.3205,26.13476 -43.7598,26.13476 l -15.7148,0 10.1582,-43.93359 c 3.5597,-0.69459 10.2464,-1.21484 18.0605,-1.21484 z M 1721.5,185.65625 c -18.0593,0 -35.7712,7.90034 -47.666,21.87891 l -0.6074,0 3.125,-19.88282 -30.6485,0 c -2.0837,11.80798 -5.2101,29.78102 -8.1621,43.58594 l -27.957,119.64258 33.7754,0 11.6328,-49.31641 0.6094,0 c 5.0357,2.25741 15.2803,4.94922 28.3906,4.94922 48.187,0 82.3945,-37.50799 82.3945,-77.88086 0,-22.57407 -13.9776,-42.97656 -44.8867,-42.97656 z m 289.8945,0.043 c -19.1879,0 -34.9027,11.37356 -44.6269,26.82812 l -0.7813,0 c 1.3892,-8.42186 2.257,-16.40855 3.2989,-24.22265 l -29.5196,0 c -1.3891,10.15833 -3.5604,28.04332 -7.207,44.27929 l -16.6699,71.28125 33.7734,0 10.8535,-46.53711 c 5.4699,-24.74466 20.8379,-44.62695 45.1485,-44.62695 2.2574,0 4.6014,3.6e-4 6.3379,0.34766 l 6.7714,-27.17578 c -2.3442,0 -5.0346,-0.17383 -7.3789,-0.17383 z m -149.7011,0.01 c -48.708,0 -80.1387,38.02758 -80.1387,72.84375 0,27.95713 18.6679,47.66602 57.9121,47.66602 17.2778,0 36.2927,-3.29914 50.0977,-9.20313 l -3.127,-20.14257 c -10.2452,4.16752 -23.0948,7.55273 -39.0703,7.55273 -13.4576,0 -23.702,-3.82066 -29.1719,-11.63476 -2.8652,-4.77529 -4.0808,-12.41522 -3.8203,-16.32227 54.7856,0.95506 93.0742,-8.5944 93.0742,-38.20117 0,-19.53526 -17.8855,-32.5586 -45.7558,-32.5586 z m 705.3105,0.42383 c -48.6211,0 -80.0527,37.94271 -80.0527,72.84571 0,27.8703 18.5813,47.57812 58.0859,47.57812 17.1042,0 35.9453,-3.12442 49.9238,-9.11523 l -3.1269,-20.23047 c -10.2452,4.25434 -23.0948,7.64062 -39.0703,7.64062 -13.3708,0 -23.6161,-3.90748 -29.086,-11.63476 -2.952,-4.77529 -4.1676,-12.41433 -3.8203,-16.40821 54.6988,0.95506 92.9883,-8.59635 92.9883,-38.20312 0,-19.53526 -17.8847,-32.47266 -45.8418,-32.47266 z m 312.668,0.0176 c -66.0726,0 -99.8477,41.84977 -99.8477,81.26758 0,23.35549 16.5842,39.50391 42.0235,39.50391 17.9724,0 36.6386,-7.38044 50.6171,-28.47852 l 0.8692,0 c -1.3892,9.72422 -2.3439,19.01595 -2.5176,25.875 l 31.4297,0 c -0.6078,-13.80492 1.7357,-35.59892 5.8164,-52.70313 l 14.5859,-60.25585 c -10.8529,-2.952 -27.4351,-5.20899 -42.9765,-5.20899 z m -623.2012,0.01 c -48.4474,0 -81.9609,33.94812 -81.9609,73.10546 0,27.43619 22.14,47.66602 57.998,47.66602 l 0.2598,0 c 48.187,0 81.6133,-33.68766 81.6133,-73.10547 0,-25.52607 -19.7947,-47.66601 -57.9102,-47.66601 z m 460.7539,0.008 c -58.8662,0 -93.0749,38.63756 -92.8144,76.83984 0,21.87949 16.0627,40.89258 44.3671,40.89258 17.9725,0 32.9058,-6.77107 44.627,-20.40234 l 0.5215,0 -3.4727,12.93554 c -6.9458,26.91525 -23.8776,35.42383 -46.0176,35.42383 -13.4576,0 -29.1725,-2.95144 -37.3339,-6.94531 l -8.5078,21.18555 c 9.3769,4.77528 26.2203,7.72656 44.6269,7.72656 17.7988,0 37.5946,-2.69128 52.4414,-12.84961 15.9755,-10.85292 23.9625,-28.82525 29.1719,-51.3125 l 21.6191,-95.41992 c -13.1971,-4.77529 -30.9088,-8.07422 -49.2285,-8.07422 z m -1227.2129,2.12695 -15.1953,64.77149 c -1.9101,7.90092 -2.8652,14.49871 -2.8652,20.75 0,23.70278 16.3234,32.64648 37.0742,32.64648 17.712,0 35.4234,-7.81443 49.0547,-22.74805 l 0.6094,0 -3.127,20.14258 30.3887,0 c 1.7364,-9.89786 3.7328,-22.0525 6.9453,-35.85742 l 18.668,-79.70508 -34.1231,0 -12.9355,56.26172 c -5.8172,23.96325 -23.79,39.1582 -39.5918,39.1582 -13.3708,0 -17.9727,-6.9464 -17.9727,-16.41015 0,-4.51482 0.8686,-10.24516 2.2578,-15.88867 l 14.586,-63.1211 -33.7735,0 z m 367.2539,17.99024 c 10.7661,0 18.0586,4.51561 18.0586,11.98242 l 0,0.17383 c 0,13.80491 -22.4876,17.53692 -57.3906,17.36328 4.0807,-14.06539 18.3208,-29.51953 39.332,-29.51953 z m 705.3965,0.42578 c 10.8529,0 18.0586,4.60137 18.0586,11.89453 l 0,0.17383 c 0,13.80491 -22.3129,17.71164 -57.3027,17.45117 3.907,-13.97856 18.3197,-29.51953 39.2441,-29.51953 z m 308.1543,0.71094 c 5.7303,0 10.4173,0.43431 13.543,1.1289 l -7.2051,30.5625 c -6.6854,29.3463 -25.9618,45.4961 -41.7637,45.4961 -14.7599,0 -20.3164,-9.98624 -20.3164,-22.05469 0,-26.30748 24.2253,-55.13281 55.7422,-55.13281 z m -618.5137,0.01 c 20.4904,0 27.0899,14.67267 27.0899,26.6543 0,23.00819 -16.9308,51.40039 -42.2832,51.40039 l -0.2617,0 c -17.1042,0 -27.3477,-11.11416 -27.3477,-26.91602 0,-21.61902 15.7138,-51.13867 42.8027,-51.13867 z m 163.5157,0.008 c 8.1614,0 15.3667,1.91093 19.6211,4.51563 l -8.5957,35.07617 c -5.8172,24.05007 -23.7894,37.5957 -39.0704,37.5957 -15.9755,0 -22.6601,-10.94136 -22.6601,-24.91992 0,-25.87336 21.5324,-52.26758 50.7051,-52.26758 z m 294.9824,0.52149 c 7.8141,0 15.0187,1.38923 18.9258,2.86523 l -8.2481,34.29492 c -4.8621,20.83761 -21.878,37.07422 -38.8086,37.07422 -16.8437,0 -22.6621,-11.37473 -22.6621,-23.26953 0,-25.00513 21.0126,-50.96484 50.793,-50.96484 z m -1002.4121,0.26953 c 16.8437,0 22.4004,11.80687 22.4004,22.3125 0,26.04701 -21.1849,54.52539 -47.6661,54.52539 -9.6373,0 -17.1904,-2.08407 -22.8339,-5.9043 l 6.164,-28.21679 c 6.1645,-27.00207 24.8314,-42.7168 41.9356,-42.7168 z m 355.082,21.93164 15.9766,0 c 20.7508,0 38.4629,6.51103 38.4629,23.61523 0,21.61902 -23.2687,29.78125 -48.6211,29.78125 -6.425,0 -12.5895,-0.1733 -17.7989,-0.60742 l 11.9805,-52.78906 z m -978.1602,1.08398 c -101.14919,0 -187.27789,22.31364 -262.64058,73.88672 -115.04098,76.23092 -191.61914,210.98184 -191.61914,402.08008 0,209.85209 131.53752,334.09537 328.2793,337.56827 81.35352,1.476 138.22172,-3.0384 191.53122,-22.0527 l -14.4121,-141.08784 c -37.2472,9.02964 -92.8135,9.55127 -130.2344,7.20704 -112.6967,-6.94587 -186.9316,-77.53424 -186.9316,-197.26368 0,-105.40357 32.21095,-196.65462 89.25391,-243.71289 39.85193,-32.64558 102.36609,-49.31481 159.32229,-49.66211 61.7314,-0.43411 101.6697,1.12811 133.2734,5.03516 l 29.9531,-162.88086 c -37.6813,-5.46987 -68.3289,-9.11719 -145.7754,-9.11719 z m 1361.3028,104.16211 -138.4824,38.46289 -13.3711,73.80079 -47.5801,0 -19.709,103.49414 47.4063,0 -26.9141,137.96093 c -5.4699,30.38818 -7.9024,51.2258 -7.9024,72.93164 0,52.96226 36.3797,88.30078 110.0059,88.30079 26.1338,0 57.7381,-3.29968 74.4082,-9.72461 l 17.3633,-106.61915 c -11.0266,0.78142 -22.1398,0.78126 -31.6035,0.78126 -24.571,0 -31.6895,-13.63177 -31.6895,-30.38868 0,-11.28704 3.1256,-32.21157 5.5567,-44.97461 l 22.2265,-108.26757 79.0098,0 19.7949,-103.49414 -79.0957,0 20.5762,-112.26368 z M 486.11523,438.78125 c -200.73565,0 -283.04296,140.48017 -283.04296,272.01758 0,85.78149 50.70447,140.30664 120.25,140.30664 41.06745,0 89.16745,-18.4079 122.33398,-77.01367 l 2.34375,0 c -0.86823,22.48725 -2.3445,45.84459 -3.99414,68.1582 l 123.81055,0 c -1.64965,-51.22579 7.12055,-132.31983 15.02148,-174.86328 l 42.02149,-206.90039 c -34.903,-11.28704 -88.73388,-21.70508 -138.74415,-21.70508 z m 2265.18747,0 c -200.6488,0 -282.957,140.48017 -282.957,272.01758 0,85.78149 50.7045,140.30664 120.25,140.30664 41.0675,0 89.1675,-18.4079 122.334,-77.01367 l 2.2578,0 c -0.7814,22.48725 -2.2566,45.84459 -3.9063,68.1582 l 123.8086,0 c -1.6496,-51.22579 7.1206,-132.31983 15.0215,-174.86328 l 41.9356,-206.90039 c -34.8162,-11.28704 -88.6471,-21.70508 -138.7442,-21.70508 z m -1101.7441,0.0957 c -146.2974,0 -231.9063,121.11789 -231.9063,241.45508 0,109.74475 62.5993,170 177.293,170 38.7232,0 99.7606,-5.55721 151.9414,-31.34375 l -7.9004,-97.76172 c -33.2533,15.9755 -70.4144,24.04883 -110.0058,24.04883 -30.8223,0 -54.6124,-7.20662 -69.6328,-20.83789 -7.1196,-7.29316 -11.8074,-16.84217 -13.4571,-25.61133 159.8419,4.77529 248.4883,-36.20654 248.4883,-134.83789 0,-80.2248 -63.38,-125.11133 -144.8203,-125.11133 z m 450.7168,0.0254 c -49.0552,0 -95.6786,20.05685 -132.9258,69.80664 l -1.5644,0 6.2519,-61.0371 -118.6875,0 c -5.4699,36.89993 -11.7218,81.87456 -22.1406,134.75 l -48.2735,259.94921 134.5762,0 31.6914,-168.52539 c 15.7151,-81.87444 48.9675,-125.11133 81.4395,-125.11132 22.2268,0 29.3476,15.28104 29.3476,38.46289 0,12.93668 -1.6499,28.13061 -3.9941,40.98046 l -39.5918,214.19336 134.4883,0 43.5859,-228.60547 c 3.1257,-18.40655 6.3379,-49.74985 6.3379,-67.375 0,-62.68647 -29.259,-107.48828 -100.541,-107.48828 z m -1042.0547,8.75196 -41.1543,218.88086 c -4.7753,28.13077 -7.9004,52.96303 -7.9004,75.53711 0,68.15634 31.6045,109.05078 98.8926,109.05078 45.0613,0 90.2096,-17.62596 132.8398,-69.02539 l 1.6485,0 -6.25,60.16796 118.5996,0 c 5.5567,-36.81311 11.8946,-81.87456 22.2265,-134.75 l 48.1875,-259.86132 -134.4902,0 -32.3848,174.86132 c -14.239,74.58128 -45.1486,117.82032 -79.9648,117.82032 -22.14,0 -29.2578,-16.75751 -29.2578,-35.16406 0,-13.63127 2.431,-33.68768 5.5566,-49.75 l 38.7227,-207.76758 -135.2715,0 z m 575.4492,89.85351 c 22.2268,0 34.9024,12.06795 34.9024,25.69922 l 0,0.78125 c 0,24.83149 -28.4786,36.90055 -110.7871,36.11914 3.9938,-25.69972 27.6977,-62.59961 75.8847,-62.59961 z M 448,541.49219 c 7.11952,0 16.67118,0.78199 25.35352,2.43164 l -16.66993,79.35742 c -16.58326,93.07466 -49.75,117.90625 -74.06054,117.90625 -22.92138,0 -38.72461,-19.27567 -38.72461,-56.00195 0,-57.91119 41.8492,-143.69336 104.10156,-143.69336 z m 2265.1875,0 c 7.1195,0 16.6703,0.78199 25.4395,2.43164 l -16.67,79.35742 c -16.6701,93.07466 -49.75,117.90625 -74.0605,117.90625 -22.9214,0 -38.7227,-19.27567 -38.7227,-56.00195 0,-57.91119 41.8482,-143.69336 104.0137,-143.69336 z M 2395.1992,885.8125 c -18.5208,-0.0564 -35.9219,0.84766 -35.9219,0.84766 l -141.0878,9.89648 c 0,0 -49.2282,6.59826 -80.6583,9.98438 -39.1573,4.51481 -61.6452,4.34192 -100.6289,10.07226 -39.6782,5.90399 -100.8886,20.05664 -100.8886,20.05664 l -201.5157,49.75 c 0,0 -37.5083,10.24542 -60.4296,19.88278 -16.1492,6.8591 -24.2239,13.1097 -40.3731,19.9688 -19.9694,8.5087 -37.1596,8.5093 -52.5273,18.3203 -4.6017,2.7783 -19.5357,13.5435 -33.0801,20.5762 -12.5026,6.5117 -19.7961,9.8106 -33.0801,14.5859 -9.811,3.6466 -25.4394,7.8145 -25.4394,7.8145 l -17.0176,8.4218 -20.1426,10.0723 c 0,0 -19.7084,9.9841 -33.166,14.4121 -5.0358,1.7365 -12.9375,3.9063 -12.9375,3.9063 0,0 -33.2542,19.5354 -54.0918,32.9062 -27.2626,17.5383 -68.6758,46.7988 -68.6758,46.7988 l 70.9336,-24.1367 c 0,0 28.7387,-15.9759 37.5078,-20.0566 18.3197,-8.7692 50.3574,-13.8926 50.3574,-13.8926 0,0 5.3838,-7.0313 10.0723,-9.8965 7.2932,-4.428 13.8919,-0.4353 21.6191,-3.9082 6.3382,-2.6915 8.4215,-6.9462 14.586,-9.7246 8.7691,-4.3412 24.3105,-6.4238 24.3105,-6.4238 0,0 8.3355,5e-4 13.545,-1.3887 7.0326,-1.8233 9.724,-6.4251 16.6699,-8.5957 11.2002,-3.2993 18.4926,1.5628 30.1269,0 20.8376,-2.7783 30.389,-12.8503 50.2715,-20.0566 64.6834,-23.0082 171.4766,-39.7657 171.4766,-39.7657 0,0 104.1005,-20.4904 171.3886,-30.041 74.234,-10.332 191.2715,-19.7949 191.2715,-19.7949 l 171.3028,-9.98438 90.6445,0 c 0,0 55.1329,9.54937 90.7305,10.07031 35.858,0.60777 55.8266,-5.46985 91.7714,-7.46679 34.903,-1.91012 89.6016,-2.60352 89.6016,-2.60352 0,0 21.4457,-1.12927 30.2149,-9.89844 6.1644,-6.16446 9.5504,-11.46112 10.1582,-20.05664 0.7814,-12.41574 -6.1647,-19.96803 -16.0625,-27.69531 -15.3678,-11.72115 -32.4712,-15.80358 -54.4375,-22.22851 -34.2953,-9.72422 -90.7305,-9.98438 -90.7305,-9.98438 l 20.1426,9.98438 -20.1426,0 c 0,0 -24.6578,1.56282 -40.1992,0 -20.0562,-1.56283 -30.8234,-6.24991 -50.6192,-9.89649 -23.4423,-4.16752 -36.6381,-8.07426 -60.4277,-9.98437 -7.3529,-0.59691 -16.0033,-0.82201 -24.4219,-0.84766 z m 454.1699,5.16992 c -39.5046,0 -73.9726,31.95192 -73.9726,73.80078 0,40.9806 33.6866,73.8867 73.9726,73.8867 40.7202,0 73.8868,-33.2534 73.8868,-73.8867 0,-41.84886 -34.0348,-73.80078 -73.8868,-73.80078 z m -0.2597,11.8086 c 34.1216,0 62.166,27.4363 62.166,61.81836 0,33.86111 -27.784,62.16602 -62.166,62.16602 -33.8611,0 -61.6446,-27.78397 -61.6446,-62.16602 0,-34.81618 28.1308,-61.81836 61.6446,-61.81836 z m -27.4356,20.49023 0,82.91605 15.8887,0 0,-33.16605 14.5,0 c 5.904,0 7.465,2.34367 8.5937,6.94531 0,1.12871 2.8656,22.31364 3.2129,26.22074 l 17.5391,0 c -2.3442,-3.9071 -3.4736,-15.28036 -4.3418,-21.87894 -1.476,-10.59245 -2.3447,-17.9725 -13.5449,-18.75391 5.7303,-1.91011 15.543,-5.12231 15.543,-20.3164 0,-21.96632 -19.1879,-21.9668 -28.9122,-21.9668 l -28.4785,0 z m 15.541,13.37109 13.2832,0 c 4.3412,0 12.1563,7e-5 12.1563,11.28711 0,4.34117 -1.9963,11.8086 -12.502,11.8086 l -12.9375,0 0,-23.09571 z"
               style="fill:#ffffff;fill-opacity:1;fill-rule:nonzero;stroke:none"
               inkscape:connector-curvature="0" />
          </g>
        </g>
      </g>
    </g>
  </g>
</svg>
